<svg xmlns:xlink="http://www.w3.org/1999/xlink" xmlns="http://www.w3.org/2000/svg" width="165" height="165" viewBox="0 0 165 165" fill="none">
<g clip-path="url(#clip0)">
<path d="M0 5.21291V2.36206L2.11617 5.21291L149.872 5.21292C149.872 5.21292 150.109 -1.94761 151.346 0.515786C152.283 2.37902 154.788 -0.462806 155.279 2.47291V5.40862C155.279 7.02998 153.965 8.34435 152.344 8.34435L3.13143 8.34434C1.40199 8.34434 0 6.94235 0 5.21291Z" transform="translate(5.88464 134.999)" fill="#9B9A99"/>
<path d="M11.0581 3.00186C11.8529 1.17873 13.6526 0 15.6414 0H142.653C144.642 0 146.441 1.17873 147.236 3.00186L156.464 24.1682C157.327 26.1498 155.875 28.3671 153.714 28.3671H4.58056C2.41878 28.3671 0.966612 26.1498 1.83052 24.1682L11.0581 3.00186Z" transform="translate(4.34448 112.029)" fill="#E7E7E7"/>
<g filter="url(#filter0_i)">
<path d="M1.20255 1.55691C1.40944 0.646259 2.21899 0 3.15285 0H33.5392C34.5164 0 35.3505 0.706212 35.5118 1.67007L36.1833 5.68503C36.2853 6.29474 35.8152 6.85 35.197 6.85H1.25267C0.610985 6.85 0.135362 6.2542 0.277525 5.62845L1.20255 1.55691Z" transform="translate(65.3026 130.621)" fill="#9B9A99"/>
</g>
<path d="M0 14.6786L5.52185 0H130.638L136.664 14.6786H0Z" transform="translate(15.1595 113.986)" fill="#BCBCBC"/>
<path d="M119.502 0H110.232L110.729 2.41147H120.04L119.502 0Z" transform="translate(18.1855 125.204)" fill="#E7E7E7"/>
<path d="M121.049 2.41147L120.51 0H129.335L130.108 2.41147H121.049Z" transform="translate(18.1855 125.204)" fill="#E7E7E7"/>
<path d="M93.1306 0H109.223L109.72 2.41147H93.4206L93.1306 0Z" transform="translate(18.1855 125.204)" fill="#E7E7E7"/>
<path d="M92.1221 0H37.7338L37.4439 2.41147H92.412L92.1221 0Z" transform="translate(18.1855 125.204)" fill="#E7E7E7"/>
<path d="M0.773186 0H9.28624L8.78908 2.41147H0L0.773186 0Z" transform="translate(18.1855 125.204)" fill="#E7E7E7"/>
<path d="M19.3793 2.41147H9.79767L10.2948 0H19.8764L19.3793 2.41147Z" transform="translate(18.1855 125.204)" fill="#E7E7E7"/>
<path d="M20.3879 2.41147H36.4353L36.7252 0H20.885L20.3879 2.41147Z" transform="translate(18.1855 125.204)" fill="#E7E7E7"/>
<path d="M107.806 0H99.1251L99.3701 1.78241H108.174L107.806 0Z" transform="translate(19.1267 122.898)" fill="#E7E7E7"/>
<path d="M109.182 1.78241L108.815 0H127.654L128.225 1.78241H109.182Z" transform="translate(19.1267 122.898)" fill="#E7E7E7"/>
<path d="M90.1469 0H98.1165L98.3615 1.78241H90.3612L90.1469 0Z" transform="translate(19.1267 122.898)" fill="#E7E7E7"/>
<path d="M89.1383 0H81.3217L81.5361 1.78241H89.3526L89.1383 0Z" transform="translate(19.1267 122.898)" fill="#E7E7E7"/>
<path d="M72.2895 0H80.3131L80.5275 1.78241H72.4118L72.2895 0Z" transform="translate(19.1267 122.898)" fill="#E7E7E7"/>
<path d="M71.2809 0H63.1041V1.78241H71.4033L71.2809 0Z" transform="translate(19.1267 122.898)" fill="#E7E7E7"/>
<path d="M0.571518 0H16.3848L16.0174 1.78241H0L0.571518 0Z" transform="translate(19.1267 122.898)" fill="#E7E7E7"/>
<path d="M24.8209 1.78241H17.026L17.3934 0H25.0659L24.8209 1.78241Z" transform="translate(19.1267 122.898)" fill="#E7E7E7"/>
<path d="M25.8295 1.78241H34.334L34.5484 0H26.0745L25.8295 1.78241Z" transform="translate(19.1267 122.898)" fill="#E7E7E7"/>
<path d="M43.9156 1.78241H35.3426L35.557 0H44.13L43.9156 1.78241Z" transform="translate(19.1267 122.898)" fill="#E7E7E7"/>
<path d="M44.9242 1.78241H52.7877L52.9101 0H45.1386L44.9242 1.78241Z" transform="translate(19.1267 122.898)" fill="#E7E7E7"/>
<path d="M62.0955 1.78241H53.7963L53.9187 0H62.0955V1.78241Z" transform="translate(19.1267 122.898)" fill="#E7E7E7"/>
<path d="M111.569 0H104.077L104.365 2.09694H112.001L111.569 0Z" transform="translate(19.8663 120.277)" fill="#E7E7E7"/>
<path d="M113.01 2.09694L112.578 0H126.074L126.746 2.09694H113.01Z" transform="translate(19.8663 120.277)" fill="#E7E7E7"/>
<path d="M94.8915 0H103.068L103.356 2.09694H95.1436L94.8915 0Z" transform="translate(19.8663 120.277)" fill="#E7E7E7"/>
<path d="M93.8829 0H85.8142L86.0663 2.09694H94.1351L93.8829 0Z" transform="translate(19.8663 120.277)" fill="#E7E7E7"/>
<path d="M77.4213 0H84.8056L85.0577 2.09694H77.5654L77.4213 0Z" transform="translate(19.8663 120.277)" fill="#E7E7E7"/>
<path d="M76.4127 0H67.9117V2.09694H76.5568L76.4127 0Z" transform="translate(19.8663 120.277)" fill="#E7E7E7"/>
<path d="M0.672475 0H13.1597L12.7275 2.09694H0L0.672475 0Z" transform="translate(19.8663 120.277)" fill="#E7E7E7"/>
<path d="M21.8048 2.09694H13.7361L14.1683 0H22.237L21.8048 2.09694Z" transform="translate(19.8663 120.277)" fill="#E7E7E7"/>
<path d="M22.8134 2.09694H31.4585L31.7466 0H23.2456L22.8134 2.09694Z" transform="translate(19.8663 120.277)" fill="#E7E7E7"/>
<path d="M40.4277 2.09694H32.467L32.7551 0H40.6798L40.4277 2.09694Z" transform="translate(19.8663 120.277)" fill="#E7E7E7"/>
<path d="M41.4363 2.09694H49.505L49.7571 0H41.6884L41.4363 2.09694Z" transform="translate(19.8663 120.277)" fill="#E7E7E7"/>
<path d="M58.15 2.09694H50.5136L50.7657 0H58.2581L58.15 2.09694Z" transform="translate(19.8663 120.277)" fill="#E7E7E7"/>
<path d="M59.1586 2.09694H66.9031V0H59.2667L59.1586 2.09694Z" transform="translate(19.8663 120.277)" fill="#E7E7E7"/>
<path d="M115.294 0H107.667L108.099 2.09694H115.763L115.294 0Z" transform="translate(20.7069 117.655)" fill="#E7E7E7"/>
<path d="M116.771 2.09694L116.303 0H124.393L125.065 2.09694H116.771Z" transform="translate(20.7069 117.655)" fill="#E7E7E7"/>
<path d="M98.8418 0H106.658L107.091 2.09694H99.13L98.8418 0Z" transform="translate(20.7069 117.655)" fill="#E7E7E7"/>
<path d="M97.8332 0H90.71L90.9622 2.09694H98.1214L97.8332 0Z" transform="translate(20.7069 117.655)" fill="#E7E7E7"/>
<path d="M81.6327 0H89.7014L89.9536 2.09694H81.8849L81.6327 0Z" transform="translate(20.7069 117.655)" fill="#E7E7E7"/>
<path d="M80.6241 0H72.3663L72.5103 2.09694H80.8763L80.6241 0Z" transform="translate(20.7069 117.655)" fill="#E7E7E7"/>
<path d="M64.0454 0H71.3577L71.5018 2.09694H64.0454V0Z" transform="translate(20.7069 117.655)" fill="#E7E7E7"/>
<path d="M10.8423 0H0.672352L0 2.09694H10.4101L10.8423 0Z" transform="translate(20.7069 117.655)" fill="#E7E7E7"/>
<path d="M11.4187 2.09694H19.4874L19.9196 0H11.8509L11.4187 2.09694Z" transform="translate(20.7069 117.655)" fill="#E7E7E7"/>
<path d="M27.9523 2.09694H20.496L20.9282 0H28.2405L27.9523 2.09694Z" transform="translate(20.7069 117.655)" fill="#E7E7E7"/>
<path d="M28.9609 2.09694H36.8766L37.1287 0H29.2491L28.9609 2.09694Z" transform="translate(20.7069 117.655)" fill="#E7E7E7"/>
<path d="M45.9539 2.09694H37.8851L38.1373 0H46.206L45.9539 2.09694Z" transform="translate(20.7069 117.655)" fill="#E7E7E7"/>
<path d="M46.9624 2.09694H54.5719L54.716 0H47.2146L46.9624 2.09694Z" transform="translate(20.7069 117.655)" fill="#E7E7E7"/>
<path d="M63.0368 2.09694H55.5805L55.7246 0H63.0368V2.09694Z" transform="translate(20.7069 117.655)" fill="#E7E7E7"/>
<path d="M110.825 0H103.26L103.693 2.09694H111.257L110.825 0Z" transform="translate(21.5475 115.034)" fill="#E7E7E7"/>
<path d="M112.266 2.09694L111.833 0H122.712L123.384 2.09694H112.266Z" transform="translate(21.5475 115.034)" fill="#E7E7E7"/>
<path d="M94.6152 0H102.252L102.684 2.09694H94.9034L94.6152 0Z" transform="translate(21.5475 115.034)" fill="#E7E7E7"/>
<path d="M93.6066 0H85.5199L85.7721 2.09694H93.8949L93.6066 0Z" transform="translate(21.5475 115.034)" fill="#E7E7E7"/>
<path d="M77.4512 0H84.5114L84.7635 2.09694H77.7034L77.4512 0Z" transform="translate(21.5475 115.034)" fill="#E7E7E7"/>
<path d="M76.4426 0H68.3199L68.4639 2.09694H76.6948L76.4426 0Z" transform="translate(21.5475 115.034)" fill="#E7E7E7"/>
<path d="M60.1791 0H67.3113L67.4553 2.09694H60.1791V0Z" transform="translate(21.5475 115.034)" fill="#E7E7E7"/>
<path d="M7.5164 0H0.672352L0 2.09694H7.08413L7.5164 0Z" transform="translate(21.5475 115.034)" fill="#E7E7E7"/>
<path d="M8.09272 2.09694H15.6571L16.0894 0H8.52499L8.09272 2.09694Z" transform="translate(21.5475 115.034)" fill="#E7E7E7"/>
<path d="M24.4462 2.09694H16.6657L17.098 0H24.7344L24.4462 2.09694Z" transform="translate(21.5475 115.034)" fill="#E7E7E7"/>
<path d="M25.4548 2.09694H33.5776L33.8297 0H25.743L25.4548 2.09694Z" transform="translate(21.5475 115.034)" fill="#E7E7E7"/>
<path d="M41.6463 2.09694H34.5862L34.8383 0H41.8984L41.6463 2.09694Z" transform="translate(21.5475 115.034)" fill="#E7E7E7"/>
<path d="M42.6549 2.09694H50.8857L51.0298 0H42.907L42.6549 2.09694Z" transform="translate(21.5475 115.034)" fill="#E7E7E7"/>
<path d="M59.1705 2.09694H51.8943L52.0384 0H59.1705V2.09694Z" transform="translate(21.5475 115.034)" fill="#E7E7E7"/>
<path d="M0 5C0 2.23858 2.23858 0 5 0H127.731C130.493 0 132.731 2.23858 132.731 5V87.0286C132.731 88.6854 131.388 90.0286 129.731 90.0286H3C1.34315 90.0286 0 88.6854 0 87.0286V5Z" transform="translate(17 22)" fill="#9B9A99"/>
<path d="M0 4C0 1.79086 1.79086 0 4 0H124C126.209 0 128 1.79086 128 4V83.2056C128 84.3102 127.105 85.2056 126 85.2056H2C0.895431 85.2056 0 84.3102 0 83.2056V4Z" transform="translate(19.3 24.4115)" fill="#87C5E5"/>
<path fill-rule="evenodd" clip-rule="evenodd" d="M8.43672 0H93.1309C95.8924 0 98.1309 2.23859 98.1309 5V63.8689C90.0277 68.4167 80.6175 71.6175 70.3867 72.9687C35.3839 77.5913 4.029 58.8118 0.353587 31.0234C-1.10051 20.0297 1.99568 9.27286 8.43672 0Z" transform="translate(49.1691 24.4115)" fill="#97D3F2"/>
<path d="M0 0H36.4171C38.074 0 39.4171 1.34315 39.4171 3V24.9186C39.4171 24.9186 31.2052 4.91807 0 0Z" transform="translate(104.809 26.8229)" fill="#D5EDFA"/>
<path fill-rule="evenodd" clip-rule="evenodd" d="M10.4874 0H5.24377V5.31226V10.6245H10.4874H15.731V5.31226H10.4874V0ZM0 21.249H5.24365V26.5612H0V21.249ZM10.4874 31.8735V26.5612L5.24365 26.5612L5.24377 31.8735H10.4874ZM36.7059 31.8735L36.7058 37.1858H10.4873L10.4874 31.8735H36.7059ZM41.9495 26.5612L41.9496 31.8735H36.7059V26.5612L41.9495 26.5612ZM41.9495 26.5612V21.249H47.1931V26.5612H41.9495ZM31.4622 5.31226V10.6245H36.7058H41.9496V5.31226H36.7058V0H31.4622V5.31226Z" transform="translate(59.4033 52.825)" fill="#4E4E4E"/>
</g>
<defs>
<filter id="filter0_i" x="65.5548" y="130.621" width="35.945" height="6.85" filterUnits="userSpaceOnUse" color-interpolation-filters="sRGB">
<feFlood flood-opacity="0" result="BackgroundImageFix"/>
<feBlend mode="normal" in="SourceGraphic" in2="BackgroundImageFix" result="shape"/>
<feColorMatrix in="SourceAlpha" type="matrix" values="0 0 0 0 0 0 0 0 0 0 0 0 0 0 0 0 0 0 255 0" result="hardAlpha"/>
<feOffset dy="0.5"/>
<feComposite in2="hardAlpha" operator="arithmetic" k2="-1" k3="1"/>
<feColorMatrix type="matrix" values="0 0 0 0 0 0 0 0 0 0 0 0 0 0 0 0 0 0 0.1 0"/>
<feBlend mode="normal" in2="shape" result="effect1_innerShadow"/>
</filter>
<clipPath id="clip0">
<rect width="165" height="165" fill="white"/>
</clipPath>
</defs>
</svg>