<svg xmlns="http://www.w3.org/2000/svg" xmlns:xlink="http://www.w3.org/1999/xlink" version="1.1" id="Layer_1" x="0px" y="0px" viewBox="0 0 140.9 126.8" style="enable-background:new 0 0 140.9 116.8; overflow: visible;" xml:space="preserve" width="654"  height="339" >
<style type="text/css">
	.star--floating {
		animation: float 3.5s ease-in-out infinite;
	}

	@keyframes float {
		50% {
			transform: rotate(-3deg) translateY(4%);
		}
	}
	.st0{fill:#FFCF47;}
	.st1{fill:#FFEBB1;}
	.st2{fill:#FEF5D9;}
</style>
<path class="star--floating st0" style="animation-delay: 2.13s" d="M22.4,11.5l-3,6.1l-6.8,1l4.9,4.8l-1.1,6.7l6.1-3.1l6.1,3.1l-1.1-6.7l4.9-4.8l-6.8-1L22.4,11.5z"/>
<path class="star--floating st1" style="animation-delay: 1.17s" d="M70.3,13.8l-2.4,4.8l-5.3,0.8l3.9,3.8l-0.9,5.3l4.8-2.5l4.8,2.5l-0.9-5.3l3.9-3.8l-5.3-0.8L70.3,13.8z"/>
<path class="star--floating st2" style="animation-delay: 0.29s" d="M101.1,17l-1.2,2.5l-2.8,0.4l2,1.9l-0.5,2.7l2.5-1.3l2.5,1.3l-0.5-2.7l2-1.9l-2.8-0.4L101.1,17z"/>
<path class="star--floating st2" style="animation-delay: 1.31s" d="M7.7,41l-1.2,2.5l-2.8,0.4l2,1.9l-0.5,2.7l2.5-1.3l2.5,1.3l-0.5-2.7l2-1.9L9,43.5L7.7,41z"/>
<path class="star--floating st0" style="animation-delay: 0.45s" d="M11.6,64.4l-2.4,4.8L3.9,70l3.9,3.8l-0.9,5.3l4.8-2.5l4.8,2.5l-0.9-5.3l3.9-3.8l-5.3-0.8L11.6,64.4z"/>
<path class="star--floating st0" style="animation-delay: 1.1s" d="M128.8,0L125,7.6l-8.4,1.2l6.1,5.9l-1.4,8.3l7.5-3.9l7.5,3.9l-1.4-8.3l6.1-5.9l-8.4-1.2L128.8,0z"/>
<path class="star--floating st2" style="animation-delay: 0.8s" d="M52.6,0l-1.2,2.5l-2.8,0.4l2,1.9l-0.5,2.7l2.5-1.3L55,7.6l-0.5-2.7l2-1.9l-2.8-0.4L52.6,0z"/>
</svg>