<svg xmlns="http://www.w3.org/2000/svg" xmlns:xlink="http://www.w3.org/1999/xlink" version="1.1" id="Layer_1" x="0px" y="0px" viewBox="0 0 140 126" style="enable-background:new 0 0 140 116; overflow: visible" xml:space="preserve" width="654"  height="339" >
<style type="text/css">
	.star--floating {
		animation: float 3.5s ease-in-out infinite;
	}

	@keyframes float {
		50% {
			transform: rotate(2deg) translateY(5%);
		}
	}
	.st0{fill:#FFCF47;}
	.st1{fill:#FFEBB1;}
	.st2{fill:#FEF5D9;}
</style>
<path class="star--floating st0" style="animation-delay: 2.13s" d="M124.1,84.3l-8.4,1.2l6.1,5.9l-1.4,8.3l7.5-3.9l7.5,3.9l-1.4-8.3l6.1-5.9l-8.4-1.2l-3.7-7.6L124.1,84.3z"/>
<path class="star--floating st1" style="animation-delay: 1.17s" d="M112.6,17.8l-5.3,0.8l3.9,3.8l-0.9,5.3l4.8-2.5l4.8,2.5l-0.9-5.3l3.9-3.8l-5.3-0.8L115,13L112.6,17.8z"/>
<path class="star--floating st2" style="animation-delay: 0.29s" d="M81.9,30.2l-2.8,0.4l2,1.9l-0.5,2.7l2.5-1.3l2.5,1.3l-0.5-2.7l2-1.9l-2.8-0.4l-1.2-2.5L81.9,30.2z"/>
<path class="star--floating st2" style="animation-delay: 1.31s" d="M130.7,43.1l-2.8,0.4l2,1.9l-0.5,2.7l2.5-1.3l2.5,1.3l-0.5-2.7l2-1.9l-2.8-0.4l-1.2-2.5L130.7,43.1z"/>
<path class="star--floating st0" style="animation-delay: 0.45s" d="M36.5,4.5l-5.3,0.8l3.9,3.8l-0.9,5.3L39,12l4.8,2.5l-0.9-5.3l3.9-3.8l-5.3-0.8l-2.6-4.8L36.5,4.5z"/>
<path class="star--floating st2" style="animation-delay: 1.1s" d="M2.8,9.8L0,10.2l2,1.9l-0.5,2.7L4,13.6l2.5,1.3L6,12.1l2-1.9L5.2,9.8L4,7.3L2.8,9.8z"/>
<path class="star--floating st2" style="animation-delay: 0.8s" d="M85.9,2.1l-2.8,0.4l2,1.9l-0.5,2.7l2.5-1.3l2.5,1.3l-0.5-2.7l2-1.9l-2.8-0.4l-1.2-2.5L85.9,2.1z"/>
<path class="star--floating st2" style="animation-delay: 1.24s" d="M123,111.3l-2.8,0.4l2,1.9l-0.5,2.7l2.5-1.3l2.5,1.3l-0.5-2.7l2-1.9l-2.8-0.4l-1.2-2.5L123,111.3z"/>
</svg>